# xmcd CD database file
#
# Track frame offsets:
#	150
#	26232
#	46087
#	70595
#	79805
#	105807
#	122545
#	125165
#	139500
#	158672
#
# Disc length: 2350 seconds
#
# Revision: 0
# Processed by: cddbd v1.5PL3 Copyright (c) Steve Scherf et al.
# Submitted via: CDex 1.40Release
#
DISCID=76092c0a
DTITLE=DELI - 口車　キミキミ注意キイロイドク
DYEAR=2002
DGENRE=ヒップ ホップ (一般)
TTITLE0=PASS DA POPCORN feat. NIPPS/K-B(THE HIMALAYA)/Mr.NICE G 13
TTITLE1=トメラレナイXX
TTITLE2=DELTA EXPRESS Pt.2 feat. MIKRIS
TTITLE3=PLASTIC BOMB
TTITLE4=クラッ!シャ! feat. BIGZAM/MIKRIS
TTITLE5=どうなってんの?
TTITLE6=DRAMA9
TTITLE7=レッカノゴトク
TTITLE8=ARE YOU READY FOR D? feat.DABO
TTITLE9=B.R.
EXTD=YEAR: 2002
EXTT0=
EXTT1=
EXTT2=
EXTT3=
EXTT4=
EXTT5=
EXTT6=
EXTT7=
EXTT8=
EXTT9=
PLAYORDER=
